G04 Layer_Physical_Order=1*
G04 Layer_Color=255*
%FSLAX44Y44*%
%MOMM*%
G71*
G01*
G75*
%ADD10C,1.5240*%
%ADD11C,0.5080*%
%ADD12C,0.2794*%
%ADD13C,0.2540*%
%ADD14C,1.0160*%
%ADD15R,1.5000X2.0000*%
%ADD16O,1.5000X2.0000*%
%ADD17R,2.0000X1.5000*%
%ADD18O,2.0000X1.5000*%
G36*
X1244600Y254000D02*
X269240D01*
Y812800D01*
X1244600D01*
Y254000D01*
D02*
G37*
%LPC*%
G36*
X1016000Y370789D02*
X1012716Y370356D01*
X1009656Y369089D01*
X1007028Y367072D01*
X1005011Y364444D01*
X1003744Y361384D01*
X1003311Y358100D01*
Y356519D01*
X1003190Y355600D01*
Y292210D01*
X673210D01*
Y355600D01*
X673089Y356519D01*
Y358100D01*
X672656Y361384D01*
X671389Y364444D01*
X669372Y367072D01*
X666744Y369089D01*
X663684Y370356D01*
X660400Y370789D01*
X657116Y370356D01*
X654056Y369089D01*
X651428Y367072D01*
X649411Y364444D01*
X648144Y361384D01*
X647711Y358100D01*
Y356519D01*
X647590Y355600D01*
Y279400D01*
X648027Y276085D01*
X649307Y272995D01*
X651342Y270342D01*
X653995Y268307D01*
X657085Y267027D01*
X660400Y266590D01*
X1016000D01*
X1019315Y267027D01*
X1022405Y268307D01*
X1025058Y270342D01*
X1027093Y272995D01*
X1028373Y276085D01*
X1028810Y279400D01*
Y355600D01*
X1028689Y356519D01*
Y358100D01*
X1028256Y361384D01*
X1026989Y364444D01*
X1024972Y367072D01*
X1022344Y369089D01*
X1019284Y370356D01*
X1016000Y370789D01*
D02*
G37*
G36*
X787400Y802589D02*
X784116Y802156D01*
X781056Y800889D01*
X778428Y798872D01*
X776411Y796244D01*
X775387Y793772D01*
X774013D01*
X772989Y796244D01*
X770972Y798872D01*
X768344Y800889D01*
X765284Y802156D01*
X762000Y802589D01*
X758716Y802156D01*
X755656Y800889D01*
X753028Y798872D01*
X751011Y796244D01*
X749987Y793772D01*
X748613D01*
X747589Y796244D01*
X745572Y798872D01*
X742944Y800889D01*
X739884Y802156D01*
X736600Y802589D01*
X733316Y802156D01*
X730256Y800889D01*
X727628Y798872D01*
X725611Y796244D01*
X724587Y793772D01*
X723213D01*
X722189Y796244D01*
X720172Y798872D01*
X717544Y800889D01*
X714484Y802156D01*
X711200Y802589D01*
X707916Y802156D01*
X704856Y800889D01*
X702228Y798872D01*
X700211Y796244D01*
X699187Y793772D01*
X697813D01*
X696789Y796244D01*
X694772Y798872D01*
X692144Y800889D01*
X689084Y802156D01*
X685800Y802589D01*
X682516Y802156D01*
X679456Y800889D01*
X676828Y798872D01*
X674811Y796244D01*
X673787Y793772D01*
X672413D01*
X671389Y796244D01*
X669372Y798872D01*
X666744Y800889D01*
X663684Y802156D01*
X660400Y802589D01*
X657116Y802156D01*
X654056Y800889D01*
X651428Y798872D01*
X649411Y796244D01*
X648387Y793772D01*
X647013D01*
X645989Y796244D01*
X643972Y798872D01*
X641344Y800889D01*
X638284Y802156D01*
X635000Y802589D01*
X631716Y802156D01*
X628656Y800889D01*
X626028Y798872D01*
X624011Y796244D01*
X623549Y795129D01*
X622280Y795382D01*
Y797400D01*
X621885Y799382D01*
X620762Y801062D01*
X619082Y802185D01*
X617100Y802579D01*
X602100D01*
X600118Y802185D01*
X598438Y801062D01*
X597315Y799382D01*
X596921Y797400D01*
Y777400D01*
X597192Y776036D01*
X596339Y774766D01*
X421640D01*
X419651Y774504D01*
X417797Y773736D01*
X416205Y772515D01*
X365256Y721566D01*
X364444Y722189D01*
X361384Y723456D01*
X358100Y723888D01*
X353100D01*
X352188Y723768D01*
X347478Y728478D01*
X345378Y729882D01*
X342900Y730374D01*
X309880D01*
X307402Y729882D01*
X305302Y728478D01*
X303898Y726378D01*
X303406Y723900D01*
Y655320D01*
X303898Y652842D01*
X305302Y650742D01*
X312922Y643122D01*
X315022Y641718D01*
X315456Y641632D01*
X316231Y640183D01*
X315444Y638284D01*
X315011Y635000D01*
X315444Y631716D01*
X316711Y628656D01*
X318728Y626028D01*
X321356Y624011D01*
X323828Y622987D01*
Y621613D01*
X321356Y620589D01*
X318728Y618572D01*
X316711Y615944D01*
X315444Y612884D01*
X315011Y609600D01*
X315444Y606316D01*
X316711Y603256D01*
X318728Y600628D01*
X321356Y598611D01*
X323828Y597587D01*
Y596213D01*
X321356Y595189D01*
X318728Y593172D01*
X316711Y590544D01*
X315444Y587484D01*
X315011Y584200D01*
X315444Y580916D01*
X316711Y577856D01*
X318728Y575228D01*
X321356Y573211D01*
X323828Y572187D01*
Y570813D01*
X321356Y569789D01*
X318728Y567772D01*
X316711Y565144D01*
X315444Y562084D01*
X315011Y558800D01*
X315444Y555516D01*
X316711Y552456D01*
X318728Y549828D01*
X321356Y547811D01*
X323828Y546787D01*
Y545413D01*
X321356Y544389D01*
X318728Y542372D01*
X316711Y539744D01*
X315444Y536684D01*
X315011Y533400D01*
X315444Y530116D01*
X316711Y527056D01*
X318728Y524428D01*
X321356Y522411D01*
X323828Y521387D01*
Y520013D01*
X321356Y518989D01*
X318728Y516972D01*
X316711Y514344D01*
X315444Y511284D01*
X315011Y508000D01*
X315444Y504716D01*
X316711Y501656D01*
X318728Y499028D01*
X321356Y497011D01*
X323828Y495987D01*
Y494613D01*
X321356Y493589D01*
X318728Y491572D01*
X316711Y488944D01*
X315444Y485884D01*
X315011Y482600D01*
X315444Y479316D01*
X316711Y476256D01*
X318728Y473628D01*
X321356Y471611D01*
X323828Y470587D01*
Y469213D01*
X321356Y468189D01*
X318728Y466172D01*
X316711Y463544D01*
X315444Y460484D01*
X315011Y457200D01*
X315444Y453916D01*
X316711Y450856D01*
X318728Y448228D01*
X321356Y446211D01*
X323828Y445187D01*
Y443813D01*
X321356Y442789D01*
X318728Y440772D01*
X316711Y438144D01*
X315444Y435084D01*
X315011Y431800D01*
X315444Y428516D01*
X316711Y425456D01*
X318728Y422828D01*
X321356Y420811D01*
X323828Y419787D01*
Y418413D01*
X321356Y417389D01*
X318728Y415372D01*
X316711Y412744D01*
X315444Y409684D01*
X315011Y406400D01*
X315444Y403116D01*
X316711Y400056D01*
X318728Y397428D01*
X321356Y395411D01*
X323828Y394387D01*
Y393013D01*
X321356Y391989D01*
X318728Y389972D01*
X316711Y387344D01*
X315444Y384284D01*
X315011Y381000D01*
X315444Y377716D01*
X316711Y374656D01*
X318728Y372028D01*
X321356Y370011D01*
X323828Y368987D01*
Y367613D01*
X321356Y366589D01*
X318728Y364572D01*
X316711Y361944D01*
X315444Y358884D01*
X315011Y355600D01*
X315444Y352316D01*
X316711Y349256D01*
X318728Y346628D01*
X321356Y344611D01*
X323828Y343587D01*
Y342213D01*
X321356Y341189D01*
X318728Y339172D01*
X316711Y336544D01*
X315444Y333484D01*
X315011Y330200D01*
X315444Y326916D01*
X316711Y323856D01*
X318728Y321228D01*
X321356Y319211D01*
X323828Y318187D01*
Y316813D01*
X321356Y315789D01*
X318728Y313772D01*
X316711Y311144D01*
X315444Y308084D01*
X315011Y304800D01*
X315444Y301516D01*
X316711Y298456D01*
X318728Y295828D01*
X321356Y293811D01*
X324416Y292544D01*
X327700Y292111D01*
X329281D01*
X330200Y291990D01*
X495300D01*
X498615Y292427D01*
X501705Y293707D01*
X504358Y295742D01*
X517058Y308442D01*
X519093Y311095D01*
X520086Y313491D01*
X521461D01*
X522411Y311196D01*
X524428Y308568D01*
X527056Y306551D01*
X530116Y305284D01*
X533400Y304851D01*
X536684Y305284D01*
X539744Y306551D01*
X542372Y308568D01*
X544389Y311196D01*
X545413Y313668D01*
X546787D01*
X547811Y311196D01*
X549828Y308568D01*
X552456Y306551D01*
X555516Y305284D01*
X558800Y304851D01*
X562084Y305284D01*
X565144Y306551D01*
X567772Y308568D01*
X569789Y311196D01*
X570813Y313668D01*
X572187D01*
X573211Y311196D01*
X575228Y308568D01*
X577856Y306551D01*
X580916Y305284D01*
X584200Y304851D01*
X587484Y305284D01*
X590544Y306551D01*
X593172Y308568D01*
X595189Y311196D01*
X595650Y312311D01*
X596921Y312058D01*
Y310040D01*
X597315Y308058D01*
X598438Y306378D01*
X600118Y305255D01*
X602100Y304860D01*
X617100D01*
X619082Y305255D01*
X620762Y306378D01*
X621885Y308058D01*
X622280Y310040D01*
Y319052D01*
X622410Y320040D01*
Y355600D01*
X622289Y356519D01*
Y358100D01*
X621856Y361384D01*
X620589Y364444D01*
X618572Y367072D01*
X615944Y369089D01*
X612884Y370356D01*
X609600Y370789D01*
X606316Y370356D01*
X603256Y369089D01*
X600628Y367072D01*
X598611Y364444D01*
X597587Y361972D01*
X596213D01*
X595189Y364444D01*
X593172Y367072D01*
X590544Y369089D01*
X587484Y370356D01*
X584200Y370789D01*
X580916Y370356D01*
X577856Y369089D01*
X575228Y367072D01*
X573211Y364444D01*
X572187Y361972D01*
X570813D01*
X569789Y364444D01*
X567772Y367072D01*
X565144Y369089D01*
X562084Y370356D01*
X558800Y370789D01*
X555516Y370356D01*
X552456Y369089D01*
X549828Y367072D01*
X547811Y364444D01*
X546787Y361972D01*
X545413D01*
X544389Y364444D01*
X542372Y367072D01*
X539744Y369089D01*
X536684Y370356D01*
X533400Y370789D01*
X530116Y370356D01*
X527056Y369089D01*
X524428Y367072D01*
X522411Y364444D01*
X522080Y363643D01*
X520810Y363896D01*
Y373154D01*
X528546Y380890D01*
X850790D01*
Y355600D01*
X850911Y354681D01*
Y353100D01*
X851344Y349816D01*
X852611Y346756D01*
X854628Y344128D01*
X857256Y342111D01*
X860316Y340844D01*
X863600Y340411D01*
X866884Y340844D01*
X869944Y342111D01*
X872572Y344128D01*
X874589Y346756D01*
X874920Y347557D01*
X876190Y347304D01*
Y320040D01*
X876311Y319121D01*
Y317540D01*
X876744Y314256D01*
X878011Y311196D01*
X880028Y308568D01*
X882656Y306551D01*
X885716Y305284D01*
X889000Y304851D01*
X892284Y305284D01*
X895344Y306551D01*
X897972Y308568D01*
X899989Y311196D01*
X901013Y313668D01*
X902387D01*
X903411Y311196D01*
X905428Y308568D01*
X908056Y306551D01*
X911116Y305284D01*
X914400Y304851D01*
X917684Y305284D01*
X920744Y306551D01*
X923372Y308568D01*
X925389Y311196D01*
X926413Y313668D01*
X927787D01*
X928811Y311196D01*
X930828Y308568D01*
X933456Y306551D01*
X936516Y305284D01*
X939800Y304851D01*
X943084Y305284D01*
X946144Y306551D01*
X948772Y308568D01*
X950789Y311196D01*
X951251Y312311D01*
X952521Y312058D01*
Y310040D01*
X952915Y308058D01*
X954037Y306378D01*
X955718Y305255D01*
X957700Y304860D01*
X972700D01*
X974682Y305255D01*
X976363Y306378D01*
X977485Y308058D01*
X977879Y310040D01*
Y319052D01*
X978010Y320040D01*
Y355600D01*
X977888Y356519D01*
Y358100D01*
X977456Y361384D01*
X976189Y364444D01*
X974172Y367072D01*
X971544Y369089D01*
X968484Y370356D01*
X965200Y370789D01*
X961916Y370356D01*
X958856Y369089D01*
X956228Y367072D01*
X954211Y364444D01*
X953187Y361972D01*
X951813D01*
X950789Y364444D01*
X948772Y367072D01*
X946144Y369089D01*
X943084Y370356D01*
X939800Y370789D01*
X936516Y370356D01*
X933456Y369089D01*
X930828Y367072D01*
X928811Y364444D01*
X927787Y361972D01*
X926413D01*
X925389Y364444D01*
X923372Y367072D01*
X920744Y369089D01*
X917684Y370356D01*
X914400Y370789D01*
X911116Y370356D01*
X908056Y369089D01*
X905428Y367072D01*
X903411Y364444D01*
X902387Y361972D01*
X901013D01*
X899989Y364444D01*
X897972Y367072D01*
X895344Y369089D01*
X892284Y370356D01*
X889000Y370789D01*
X885716Y370356D01*
X882656Y369089D01*
X880028Y367072D01*
X878011Y364444D01*
X877680Y363643D01*
X876410Y363896D01*
Y380890D01*
X1066800D01*
X1070115Y381327D01*
X1073205Y382607D01*
X1075858Y384642D01*
X1126658Y435442D01*
X1128693Y438095D01*
X1129973Y441185D01*
X1130410Y444500D01*
Y652780D01*
X1129973Y656095D01*
X1128693Y659185D01*
X1126658Y661838D01*
X1124005Y663873D01*
X1120915Y665153D01*
X1117600Y665590D01*
X508000D01*
X504685Y665153D01*
X501595Y663873D01*
X498942Y661838D01*
X496907Y659185D01*
X495627Y656095D01*
X495190Y652780D01*
Y609600D01*
X495312Y608681D01*
Y607100D01*
X495744Y603816D01*
X497011Y600756D01*
X499028Y598128D01*
X501656Y596111D01*
X504716Y594844D01*
X508000Y594411D01*
X511284Y594844D01*
X514344Y596111D01*
X516972Y598128D01*
X518989Y600756D01*
X519320Y601557D01*
X520590Y601304D01*
Y574040D01*
X520712Y573121D01*
Y571540D01*
X521144Y568256D01*
X522411Y565196D01*
X524428Y562568D01*
X527056Y560551D01*
X530116Y559284D01*
X533400Y558851D01*
X536684Y559284D01*
X539744Y560551D01*
X542372Y562568D01*
X544389Y565196D01*
X545413Y567668D01*
X546787D01*
X547811Y565196D01*
X549828Y562568D01*
X552456Y560551D01*
X555516Y559284D01*
X558800Y558851D01*
X562084Y559284D01*
X565144Y560551D01*
X567772Y562568D01*
X569789Y565196D01*
X570813Y567668D01*
X572187D01*
X573211Y565196D01*
X575228Y562568D01*
X577856Y560551D01*
X580916Y559284D01*
X584200Y558851D01*
X587484Y559284D01*
X590544Y560551D01*
X593172Y562568D01*
X595189Y565196D01*
X595650Y566311D01*
X596921Y566058D01*
Y564040D01*
X597315Y562058D01*
X598438Y560378D01*
X600118Y559255D01*
X602100Y558861D01*
X617100D01*
X619082Y559255D01*
X620762Y560378D01*
X621885Y562058D01*
X622280Y564040D01*
Y573052D01*
X622410Y574040D01*
Y609600D01*
X622289Y610519D01*
Y612100D01*
X621856Y615384D01*
X620589Y618444D01*
X618572Y621072D01*
X615944Y623089D01*
X612884Y624356D01*
X609600Y624789D01*
X606316Y624356D01*
X603256Y623089D01*
X600628Y621072D01*
X598611Y618444D01*
X597587Y615972D01*
X596213D01*
X595189Y618444D01*
X593172Y621072D01*
X590544Y623089D01*
X587484Y624356D01*
X584200Y624789D01*
X580916Y624356D01*
X577856Y623089D01*
X575228Y621072D01*
X573211Y618444D01*
X572187Y615972D01*
X570813D01*
X569789Y618444D01*
X567772Y621072D01*
X565144Y623089D01*
X562084Y624356D01*
X558800Y624789D01*
X555516Y624356D01*
X552456Y623089D01*
X549828Y621072D01*
X547811Y618444D01*
X546787Y615972D01*
X545413D01*
X544389Y618444D01*
X542372Y621072D01*
X539744Y623089D01*
X536684Y624356D01*
X533400Y624789D01*
X530116Y624356D01*
X527056Y623089D01*
X524428Y621072D01*
X522411Y618444D01*
X522080Y617643D01*
X520810Y617896D01*
Y639970D01*
X850790D01*
Y609600D01*
X850911Y608681D01*
Y607100D01*
X851344Y603816D01*
X852611Y600756D01*
X854628Y598128D01*
X857256Y596111D01*
X860316Y594844D01*
X863600Y594411D01*
X866884Y594844D01*
X869944Y596111D01*
X872572Y598128D01*
X874589Y600756D01*
X874920Y601557D01*
X876190Y601304D01*
Y574040D01*
X876311Y573121D01*
Y571540D01*
X876744Y568256D01*
X878011Y565196D01*
X880028Y562568D01*
X882656Y560551D01*
X885716Y559284D01*
X889000Y558851D01*
X892284Y559284D01*
X895344Y560551D01*
X897972Y562568D01*
X899989Y565196D01*
X901013Y567668D01*
X902387D01*
X903411Y565196D01*
X905428Y562568D01*
X908056Y560551D01*
X911116Y559284D01*
X914400Y558851D01*
X917684Y559284D01*
X920744Y560551D01*
X923372Y562568D01*
X925389Y565196D01*
X926413Y567668D01*
X927787D01*
X928811Y565196D01*
X930828Y562568D01*
X933456Y560551D01*
X936516Y559284D01*
X939800Y558851D01*
X943084Y559284D01*
X946144Y560551D01*
X948772Y562568D01*
X950789Y565196D01*
X951251Y566311D01*
X952521Y566058D01*
Y564040D01*
X952915Y562058D01*
X954037Y560378D01*
X955718Y559255D01*
X957700Y558861D01*
X972700D01*
X974682Y559255D01*
X976363Y560378D01*
X977485Y562058D01*
X977879Y564040D01*
Y573052D01*
X978010Y574040D01*
Y609600D01*
X977888Y610519D01*
Y612100D01*
X977456Y615384D01*
X976189Y618444D01*
X974172Y621072D01*
X971544Y623089D01*
X968484Y624356D01*
X965200Y624789D01*
X961916Y624356D01*
X958856Y623089D01*
X956228Y621072D01*
X954211Y618444D01*
X953187Y615972D01*
X951813D01*
X950789Y618444D01*
X948772Y621072D01*
X946144Y623089D01*
X943084Y624356D01*
X939800Y624789D01*
X936516Y624356D01*
X933456Y623089D01*
X930828Y621072D01*
X928811Y618444D01*
X927787Y615972D01*
X926413D01*
X925389Y618444D01*
X923372Y621072D01*
X920744Y623089D01*
X917684Y624356D01*
X914400Y624789D01*
X911116Y624356D01*
X908056Y623089D01*
X905428Y621072D01*
X903411Y618444D01*
X902387Y615972D01*
X901013D01*
X899989Y618444D01*
X897972Y621072D01*
X895344Y623089D01*
X892284Y624356D01*
X889000Y624789D01*
X885716Y624356D01*
X882656Y623089D01*
X880028Y621072D01*
X878011Y618444D01*
X877680Y617643D01*
X876410Y617896D01*
Y639970D01*
X1104790D01*
Y449806D01*
X1061494Y406510D01*
X523240D01*
X519925Y406073D01*
X516835Y404793D01*
X514182Y402758D01*
X498942Y387518D01*
X496907Y384865D01*
X495627Y381775D01*
X495190Y378460D01*
Y355600D01*
Y322806D01*
X489994Y317610D01*
X363896D01*
X363643Y318880D01*
X364444Y319211D01*
X367072Y321228D01*
X369089Y323856D01*
X370356Y326916D01*
X370789Y330200D01*
X370356Y333484D01*
X369089Y336544D01*
X367072Y339172D01*
X364444Y341189D01*
X361972Y342213D01*
Y343587D01*
X364444Y344611D01*
X367072Y346628D01*
X369089Y349256D01*
X370356Y352316D01*
X370789Y355600D01*
X370356Y358884D01*
X369089Y361944D01*
X367072Y364572D01*
X364444Y366589D01*
X361972Y367613D01*
Y368987D01*
X364444Y370011D01*
X367072Y372028D01*
X368059Y373314D01*
X406400D01*
X408389Y373576D01*
X410243Y374344D01*
X411835Y375565D01*
X504290Y468020D01*
X504716Y467844D01*
X508000Y467411D01*
X511284Y467844D01*
X514344Y469111D01*
X516972Y471128D01*
X518989Y473756D01*
X520013Y476228D01*
X521387D01*
X522411Y473756D01*
X524428Y471128D01*
X527056Y469111D01*
X530116Y467844D01*
X533400Y467411D01*
X536684Y467844D01*
X539744Y469111D01*
X542372Y471128D01*
X544389Y473756D01*
X545413Y476228D01*
X546787D01*
X547811Y473756D01*
X549828Y471128D01*
X552456Y469111D01*
X555516Y467844D01*
X558800Y467411D01*
X562084Y467844D01*
X562510Y468020D01*
X591465Y439065D01*
X591465Y439065D01*
X593057Y437844D01*
X594911Y437076D01*
X596900Y436814D01*
X1028700D01*
X1030689Y437076D01*
X1032543Y437844D01*
X1034135Y439065D01*
X1059535Y464465D01*
X1059535Y464465D01*
X1060756Y466057D01*
X1061524Y467911D01*
X1061786Y469900D01*
X1061786Y469900D01*
Y520700D01*
X1061524Y522689D01*
X1060756Y524543D01*
X1059535Y526135D01*
X1057943Y527356D01*
X1056089Y528124D01*
X1054100Y528386D01*
X1027647D01*
X1027482Y528720D01*
X1027143Y529656D01*
X1028373Y532625D01*
X1028810Y535940D01*
Y609600D01*
X1028689Y610519D01*
Y612100D01*
X1028256Y615384D01*
X1026989Y618444D01*
X1024972Y621072D01*
X1022344Y623089D01*
X1019284Y624356D01*
X1016000Y624789D01*
X1012716Y624356D01*
X1009656Y623089D01*
X1007028Y621072D01*
X1005011Y618444D01*
X1003744Y615384D01*
X1003311Y612100D01*
Y610519D01*
X1003190Y609600D01*
Y548750D01*
X673210D01*
Y609600D01*
X673089Y610519D01*
Y612100D01*
X672656Y615384D01*
X671389Y618444D01*
X669372Y621072D01*
X666744Y623089D01*
X663684Y624356D01*
X660400Y624789D01*
X657116Y624356D01*
X654056Y623089D01*
X651428Y621072D01*
X649411Y618444D01*
X648144Y615384D01*
X647711Y612100D01*
Y610519D01*
X647590Y609600D01*
Y535940D01*
X648027Y532625D01*
X649307Y529535D01*
X651342Y526882D01*
X653995Y524847D01*
X657085Y523567D01*
X660400Y523130D01*
X942402D01*
X942888Y521957D01*
X918110Y497180D01*
X917684Y497356D01*
X914400Y497789D01*
X911116Y497356D01*
X908056Y496089D01*
X905428Y494072D01*
X903411Y491444D01*
X902387Y488972D01*
X901013D01*
X899989Y491444D01*
X897972Y494072D01*
X895344Y496089D01*
X892284Y497356D01*
X889000Y497789D01*
X885716Y497356D01*
X882656Y496089D01*
X880028Y494072D01*
X878011Y491444D01*
X876987Y488972D01*
X875613D01*
X874589Y491444D01*
X873848Y492410D01*
Y508000D01*
X873499Y510652D01*
X872475Y513124D01*
X870846Y515246D01*
X868724Y516875D01*
X866252Y517898D01*
X863600Y518248D01*
X860948Y517898D01*
X858476Y516875D01*
X856354Y515246D01*
X854725Y513124D01*
X853701Y510652D01*
X853352Y508000D01*
Y492410D01*
X852611Y491444D01*
X851587Y488972D01*
X850213D01*
X849189Y491444D01*
X848448Y492410D01*
Y508000D01*
X848099Y510652D01*
X847075Y513124D01*
X845446Y515246D01*
X843324Y516875D01*
X840852Y517898D01*
X838200Y518248D01*
X835548Y517898D01*
X833076Y516875D01*
X830954Y515246D01*
X829325Y513124D01*
X828301Y510652D01*
X827952Y508000D01*
Y492410D01*
X827211Y491444D01*
X825944Y488384D01*
X825511Y485100D01*
Y480100D01*
X825944Y476816D01*
X827211Y473756D01*
X828127Y472563D01*
X827565Y471424D01*
X673847D01*
X673041Y472406D01*
X673080Y472600D01*
Y492600D01*
X672685Y494582D01*
X671562Y496263D01*
X670648Y496874D01*
Y505460D01*
X670298Y508112D01*
X669275Y510584D01*
X667646Y512706D01*
X665524Y514335D01*
X663052Y515359D01*
X660400Y515708D01*
X657748Y515359D01*
X655276Y514335D01*
X653154Y512706D01*
X651525Y510584D01*
X650501Y508112D01*
X650152Y505460D01*
Y496874D01*
X649238Y496263D01*
X648115Y494582D01*
X647720Y492600D01*
Y490582D01*
X646451Y490329D01*
X645989Y491444D01*
X643972Y494072D01*
X641344Y496089D01*
X638284Y497356D01*
X635000Y497789D01*
X631716Y497356D01*
X630208Y496731D01*
X581250Y545690D01*
X579107Y547121D01*
X576580Y547624D01*
X508195D01*
X378975Y676844D01*
X379501Y678114D01*
X528320D01*
X530309Y678376D01*
X532163Y679144D01*
X533755Y680365D01*
X558800Y705411D01*
X583845Y680365D01*
X585437Y679144D01*
X587291Y678376D01*
X589280Y678114D01*
X863600D01*
X865589Y678376D01*
X867443Y679144D01*
X869035Y680365D01*
X910690Y722020D01*
X911116Y721844D01*
X914400Y721411D01*
X917684Y721844D01*
X919440Y722571D01*
X920496Y721866D01*
Y713740D01*
X920999Y711213D01*
X922430Y709070D01*
X930050Y701450D01*
X932193Y700019D01*
X934720Y699516D01*
X972820D01*
X975347Y700019D01*
X977490Y701450D01*
X995270Y719230D01*
X996701Y721373D01*
X997066Y723204D01*
X999572Y725128D01*
X1001589Y727756D01*
X1002050Y728871D01*
X1003320Y728618D01*
Y726600D01*
X1003715Y724618D01*
X1004837Y722937D01*
X1006518Y721815D01*
X1008500Y721421D01*
X1023500D01*
X1025482Y721815D01*
X1027162Y722937D01*
X1028285Y724618D01*
X1028680Y726600D01*
Y746600D01*
X1028285Y748582D01*
X1027162Y750263D01*
X1026248Y750874D01*
Y767080D01*
X1025899Y769732D01*
X1024875Y772204D01*
X1023246Y774326D01*
X1021124Y775955D01*
X1018652Y776979D01*
X1016000Y777328D01*
X1013348Y776979D01*
X1010876Y775955D01*
X1008754Y774326D01*
X1007125Y772204D01*
X1006102Y769732D01*
X1005752Y767080D01*
Y750874D01*
X1004837Y750263D01*
X1003715Y748582D01*
X1003320Y746600D01*
Y744582D01*
X1002050Y744329D01*
X1001589Y745444D01*
X999572Y748072D01*
X996944Y750089D01*
X993884Y751356D01*
X990600Y751789D01*
X987316Y751356D01*
X984256Y750089D01*
X981628Y748072D01*
X979611Y745444D01*
X978587Y742972D01*
X977213D01*
X976189Y745444D01*
X974172Y748072D01*
X972886Y749059D01*
Y767080D01*
X972624Y769069D01*
X971856Y770923D01*
X970635Y772515D01*
X969043Y773736D01*
X967189Y774504D01*
X965200Y774766D01*
X796767D01*
X796621Y775193D01*
X796455Y776036D01*
X798389Y778556D01*
X799656Y781616D01*
X800089Y784900D01*
Y789900D01*
X799656Y793184D01*
X798389Y796244D01*
X796372Y798872D01*
X793744Y800889D01*
X790684Y802156D01*
X787400Y802589D01*
D02*
G37*
%LPD*%
G36*
X378498Y628346D02*
X378200Y626848D01*
X377157Y626416D01*
X375565Y625195D01*
X374344Y623603D01*
X373576Y621749D01*
X373314Y619760D01*
Y601980D01*
X373576Y599991D01*
X374344Y598137D01*
X375565Y596545D01*
X456845Y515265D01*
X456845Y515265D01*
X458437Y514044D01*
X460291Y513276D01*
X462280Y513014D01*
X517516D01*
X531804Y498727D01*
X531395Y497525D01*
X530116Y497356D01*
X527056Y496089D01*
X524428Y494072D01*
X522411Y491444D01*
X521387Y488972D01*
X520013D01*
X518989Y491444D01*
X516972Y494072D01*
X514344Y496089D01*
X511284Y497356D01*
X508000Y497789D01*
X504716Y497356D01*
X501656Y496089D01*
X499028Y494072D01*
X497011Y491444D01*
X495987Y488972D01*
X494613D01*
X493589Y491444D01*
X491572Y494072D01*
X488944Y496089D01*
X485884Y497356D01*
X482600Y497789D01*
X479316Y497356D01*
X476256Y496089D01*
X473628Y494072D01*
X471611Y491444D01*
X470344Y488384D01*
X469911Y485100D01*
Y480781D01*
X403216Y414086D01*
X368059D01*
X367072Y415372D01*
X364444Y417389D01*
X361972Y418413D01*
Y419787D01*
X364444Y420811D01*
X367072Y422828D01*
X369089Y425456D01*
X370356Y428516D01*
X370789Y431800D01*
X370356Y435084D01*
X369089Y438144D01*
X367072Y440772D01*
X364444Y442789D01*
X361972Y443813D01*
Y445187D01*
X364444Y446211D01*
X367072Y448228D01*
X369089Y450856D01*
X370356Y453916D01*
X370789Y457200D01*
X370356Y460484D01*
X369089Y463544D01*
X367072Y466172D01*
X364444Y468189D01*
X361972Y469213D01*
Y470587D01*
X364444Y471611D01*
X367072Y473628D01*
X369089Y476256D01*
X370356Y479316D01*
X370789Y482600D01*
X370356Y485884D01*
X369089Y488944D01*
X367072Y491572D01*
X364444Y493589D01*
X361972Y494613D01*
Y495987D01*
X364444Y497011D01*
X367072Y499028D01*
X369089Y501656D01*
X370356Y504716D01*
X370789Y508000D01*
X370356Y511284D01*
X369089Y514344D01*
X367072Y516972D01*
X364444Y518989D01*
X361972Y520013D01*
Y521387D01*
X364444Y522411D01*
X367072Y524428D01*
X369089Y527056D01*
X370356Y530116D01*
X370789Y533400D01*
X370356Y536684D01*
X369089Y539744D01*
X367072Y542372D01*
X364444Y544389D01*
X361972Y545413D01*
Y546787D01*
X364444Y547811D01*
X367072Y549828D01*
X369089Y552456D01*
X370356Y555516D01*
X370789Y558800D01*
X370356Y562084D01*
X369089Y565144D01*
X367072Y567772D01*
X364444Y569789D01*
X361972Y570813D01*
Y572187D01*
X364444Y573211D01*
X367072Y575228D01*
X369089Y577856D01*
X370356Y580916D01*
X370789Y584200D01*
X370356Y587484D01*
X369089Y590544D01*
X367072Y593172D01*
X364444Y595189D01*
X361972Y596213D01*
Y597587D01*
X364444Y598611D01*
X367072Y600628D01*
X369089Y603256D01*
X370356Y606316D01*
X370789Y609600D01*
X370356Y612884D01*
X369089Y615944D01*
X367072Y618572D01*
X364444Y620589D01*
X361972Y621613D01*
Y622987D01*
X364444Y624011D01*
X367072Y626028D01*
X369089Y628656D01*
X370356Y631716D01*
X370702Y634345D01*
X372043Y634800D01*
X378498Y628346D01*
D02*
G37*
G36*
X609239Y499022D02*
X608783Y497681D01*
X606316Y497356D01*
X604678Y496678D01*
X568113Y533243D01*
X568599Y534416D01*
X573845D01*
X609239Y499022D01*
D02*
G37*
G36*
X569233Y513810D02*
X568394Y512854D01*
X566464Y514335D01*
X563992Y515359D01*
X561340Y515708D01*
X558688Y515359D01*
X556216Y514335D01*
X554094Y512706D01*
X552465Y510584D01*
X551441Y508112D01*
X551092Y505460D01*
X551441Y502808D01*
X551572Y502494D01*
X550495Y501774D01*
X526614Y525656D01*
X527140Y526926D01*
X556118D01*
X569233Y513810D01*
D02*
G37*
G36*
X479316Y467844D02*
X480595Y467675D01*
X481003Y466473D01*
X403216Y388686D01*
X368059D01*
X367072Y389972D01*
X364444Y391989D01*
X361972Y393013D01*
Y394387D01*
X364444Y395411D01*
X367072Y397428D01*
X368059Y398714D01*
X406400D01*
X408389Y398976D01*
X410243Y399744D01*
X411835Y400965D01*
X478890Y468020D01*
X479316Y467844D01*
D02*
G37*
G36*
X598611Y473756D02*
X600628Y471128D01*
X603126Y469211D01*
Y454660D01*
X603423Y453167D01*
X602617Y452186D01*
X600084D01*
X585797Y466473D01*
X586205Y467675D01*
X587484Y467844D01*
X590544Y469111D01*
X593172Y471128D01*
X595189Y473756D01*
X596213Y476228D01*
X597587D01*
X598611Y473756D01*
D02*
G37*
G36*
X1046414Y473083D02*
X1025516Y452186D01*
X998941D01*
X998455Y453359D01*
X1007878Y462782D01*
X1009282Y464882D01*
X1009774Y467360D01*
Y467421D01*
X1023500D01*
X1025482Y467815D01*
X1027162Y468937D01*
X1028285Y470618D01*
X1028680Y472600D01*
Y492600D01*
X1028285Y494582D01*
X1027162Y496263D01*
X1026248Y496874D01*
Y505460D01*
X1025899Y508112D01*
X1024875Y510584D01*
X1023984Y511744D01*
X1024611Y513014D01*
X1046414D01*
Y473083D01*
D02*
G37*
G36*
X853544Y758124D02*
X853352Y756666D01*
Y746410D01*
X852611Y745444D01*
X851587Y742972D01*
X850213D01*
X849189Y745444D01*
X847172Y748072D01*
X844544Y750089D01*
X841484Y751356D01*
X838200Y751789D01*
X834916Y751356D01*
X831856Y750089D01*
X829228Y748072D01*
X828288Y746848D01*
X800100D01*
X797448Y746498D01*
X794976Y745475D01*
X792854Y743846D01*
X791225Y741724D01*
X790201Y739252D01*
X789852Y736600D01*
X790201Y733948D01*
X791225Y731476D01*
X792854Y729354D01*
X794976Y727725D01*
X797448Y726702D01*
X797505Y726694D01*
X797422Y725424D01*
X701178D01*
X701095Y726694D01*
X701152Y726702D01*
X703624Y727725D01*
X705746Y729354D01*
X707375Y731476D01*
X708399Y733948D01*
X708748Y736600D01*
X708399Y739252D01*
X707375Y741724D01*
X705746Y743846D01*
X703624Y745475D01*
X701152Y746498D01*
X698500Y746848D01*
X673030D01*
X672685Y748582D01*
X671562Y750263D01*
X669882Y751385D01*
X667900Y751779D01*
X652900D01*
X650918Y751385D01*
X649238Y750263D01*
X648115Y748582D01*
X647720Y746600D01*
Y744582D01*
X646451Y744329D01*
X645989Y745444D01*
X643972Y748072D01*
X641344Y750089D01*
X638284Y751356D01*
X635000Y751789D01*
X631716Y751356D01*
X628656Y750089D01*
X626028Y748072D01*
X624011Y745444D01*
X622987Y742972D01*
X621613D01*
X620589Y745444D01*
X618572Y748072D01*
X617286Y749059D01*
Y759394D01*
X852430D01*
X853544Y758124D01*
D02*
G37*
G36*
X547811Y727756D02*
X549828Y725128D01*
X551114Y724141D01*
Y719464D01*
X525136Y693486D01*
X506501D01*
X505975Y694756D01*
X525370Y714150D01*
X526801Y716293D01*
X527304Y718820D01*
Y721866D01*
X528360Y722571D01*
X530116Y721844D01*
X533400Y721411D01*
X536684Y721844D01*
X539744Y723111D01*
X542372Y725128D01*
X544389Y727756D01*
X545413Y730228D01*
X546787D01*
X547811Y727756D01*
D02*
G37*
G36*
X525265Y758124D02*
X516030Y748890D01*
X515929Y748873D01*
X514344Y750089D01*
X511284Y751356D01*
X508000Y751789D01*
X504716Y751356D01*
X501656Y750089D01*
X499028Y748072D01*
X497011Y745444D01*
X495987Y742972D01*
X494613D01*
X493589Y745444D01*
X491572Y748072D01*
X488944Y750089D01*
X485884Y751356D01*
X482600Y751789D01*
X479316Y751356D01*
X476256Y750089D01*
X473628Y748072D01*
X472688Y746848D01*
X444500D01*
X441848Y746498D01*
X439376Y745475D01*
X437254Y743846D01*
X435625Y741724D01*
X434602Y739252D01*
X434252Y736600D01*
X434602Y733948D01*
X435625Y731476D01*
X437254Y729354D01*
X439376Y727725D01*
X441848Y726702D01*
X444500Y726352D01*
X472688D01*
X473628Y725128D01*
X476256Y723111D01*
X478609Y722137D01*
X478805Y721404D01*
X477781Y718932D01*
X477432Y716280D01*
X477781Y713628D01*
X478805Y711156D01*
X480434Y709034D01*
X482556Y707405D01*
X485028Y706382D01*
X485085Y706374D01*
X485002Y705104D01*
X372329D01*
X371803Y706374D01*
X424824Y759394D01*
X524739D01*
X525265Y758124D01*
D02*
G37*
G36*
X957514Y749059D02*
X956228Y748072D01*
X954211Y745444D01*
X953187Y742972D01*
X951813D01*
X950789Y745444D01*
X948772Y748072D01*
X946144Y750089D01*
X943084Y751356D01*
X939800Y751789D01*
X936516Y751356D01*
X933456Y750089D01*
X932568Y750235D01*
X931770Y751430D01*
X926690Y756510D01*
X924547Y757941D01*
X923627Y758124D01*
X923752Y759394D01*
X957514D01*
Y749059D01*
D02*
G37*
G36*
X496093Y541048D02*
X495607Y539874D01*
X485282D01*
X372878Y652278D01*
X370778Y653682D01*
X370344Y653768D01*
X369570Y655217D01*
X370356Y657116D01*
X370789Y660400D01*
X370356Y663684D01*
X370074Y664365D01*
X370888Y665720D01*
X371374Y665766D01*
X496093Y541048D01*
D02*
G37*
G36*
X477188Y529656D02*
X476662Y528386D01*
X465463D01*
X388686Y605164D01*
Y616499D01*
X389859Y616985D01*
X477188Y529656D01*
D02*
G37*
G36*
X954211Y727756D02*
X956228Y725128D01*
X958856Y723111D01*
X961916Y721844D01*
X965200Y721411D01*
X968484Y721844D01*
X971544Y723111D01*
X974172Y725128D01*
X976189Y727756D01*
X977213Y730228D01*
X978587D01*
X979611Y727756D01*
X981628Y725128D01*
X981681Y724320D01*
X970085Y712724D01*
X950532D01*
X949747Y713994D01*
X950048Y716280D01*
Y726790D01*
X950789Y727756D01*
X951813Y730228D01*
X953187D01*
X954211Y727756D01*
D02*
G37*
G36*
X882656Y723111D02*
X885716Y721844D01*
X886995Y721675D01*
X887403Y720473D01*
X860416Y693486D01*
X592464D01*
X585919Y700030D01*
X586328Y701232D01*
X586852Y701301D01*
X589324Y702325D01*
X591446Y703954D01*
X593075Y706076D01*
X594099Y708548D01*
X594448Y711200D01*
Y711703D01*
X595429Y712509D01*
X596900Y712216D01*
X617220D01*
X619747Y712719D01*
X621890Y714150D01*
X630208Y722468D01*
X631716Y721844D01*
X635000Y721411D01*
X638284Y721844D01*
X639792Y722468D01*
X648110Y714150D01*
X650253Y712719D01*
X652780Y712216D01*
X866140D01*
X868667Y712719D01*
X870810Y714150D01*
X880970Y724310D01*
X881071Y724327D01*
X882656Y723111D01*
D02*
G37*
D10*
X330200Y304800D02*
X355600D01*
X495300D01*
X533400Y320040D02*
Y355600D01*
X558800Y320040D02*
Y355600D01*
X584200Y320040D02*
Y355600D01*
X609600Y320040D02*
Y355600D01*
X889000Y320040D02*
Y355600D01*
X914400Y320040D02*
Y355600D01*
X939800Y320040D02*
Y355600D01*
X965200Y320040D02*
Y355600D01*
X889000Y574040D02*
Y609600D01*
X914400Y574040D02*
Y609600D01*
X939800Y574040D02*
Y609600D01*
X965200Y574040D02*
Y609600D01*
X533400Y574040D02*
Y609600D01*
X558800Y574040D02*
Y609600D01*
X584200Y574040D02*
Y609600D01*
X609600Y574040D02*
Y609600D01*
X1066800Y393700D02*
X1117600Y444500D01*
X495300Y304800D02*
X508000Y317500D01*
Y355600D01*
X863600D02*
Y393700D01*
X508000Y355600D02*
Y378460D01*
X523240Y393700D01*
X1066800D01*
X660400Y279400D02*
Y355600D01*
Y279400D02*
X1016000D01*
Y355600D01*
X508000Y609600D02*
Y652780D01*
X863600D01*
Y609600D02*
Y652780D01*
X1117600D01*
Y444500D02*
Y652780D01*
X660400Y535940D02*
Y609600D01*
Y535940D02*
X1016000D01*
Y609600D01*
D11*
X355600Y711200D02*
X365760D01*
X863600Y685800D02*
X914400Y736600D01*
X558800Y482600D02*
X596900Y444500D01*
X1028700D01*
X1054100Y469900D01*
Y520700D01*
X952500D02*
X1054100D01*
X914400Y482600D02*
X952500Y520700D01*
X520700D02*
X558800Y482600D01*
X462280Y520700D02*
X520700D01*
X381000Y601980D02*
X462280Y520700D01*
X381000Y601980D02*
Y619760D01*
X355600Y406400D02*
X406400D01*
X482600Y482600D01*
X355600Y381000D02*
X406400D01*
X508000Y482600D01*
X609600Y767080D02*
X965200D01*
Y736600D02*
Y767080D01*
X365760Y711200D02*
X421640Y767080D01*
X609600D01*
Y736600D02*
Y767080D01*
X558800Y716280D02*
Y736600D01*
Y716280D02*
X589280Y685800D01*
X863600D01*
X355600D02*
X528320D01*
X558800Y716280D01*
D12*
X330200Y685800D02*
X342900Y698500D01*
X500380D01*
X520700Y718820D01*
Y744220D01*
X530860Y754380D01*
X586740D01*
X596900Y744220D01*
Y718820D02*
Y744220D01*
Y718820D02*
X617220D01*
X635000Y736600D01*
X652780Y718820D01*
X866140D01*
X876300Y728980D01*
Y746760D01*
X881380Y751840D01*
X922020D01*
X927100Y746760D01*
X330200Y685800D02*
X342900Y673100D01*
X635000Y464820D02*
Y482600D01*
Y464820D02*
X977900D01*
X990600Y477520D01*
X927100Y713740D02*
Y746760D01*
Y713740D02*
X934720Y706120D01*
X972820D01*
X990600Y723900D02*
Y736600D01*
X972820Y706120D02*
X990600Y723900D01*
X576580Y541020D02*
X635000Y482600D01*
X505460Y541020D02*
X576580D01*
X342900Y673100D02*
X373380D01*
X505460Y541020D01*
D13*
X342900Y723900D02*
X355600Y711200D01*
X309880Y723900D02*
X342900D01*
X309880Y655320D02*
Y723900D01*
Y655320D02*
X317500Y647700D01*
X368300D01*
X482600Y533400D01*
X558800D01*
X609600Y482600D01*
Y454660D02*
Y482600D01*
Y454660D02*
X990600D01*
X1003300Y467360D01*
Y502920D01*
X975360D02*
X1003300D01*
X965200Y492760D02*
X975360Y502920D01*
X965200Y482600D02*
Y492760D01*
D14*
X561340Y505460D02*
X584200Y482600D01*
X660400D02*
Y505460D01*
X838200Y485140D02*
Y508000D01*
X863600Y482600D02*
Y508000D01*
X1016000Y482600D02*
Y505460D01*
Y736600D02*
Y767080D01*
X939800Y716280D02*
Y736600D01*
Y482600D02*
Y485140D01*
X960120Y505460D01*
X660400Y736600D02*
X698500D01*
X800100D02*
X838200D01*
X863600D02*
Y756666D01*
X584200Y711200D02*
Y736600D01*
X444500D02*
X482600D01*
X487680Y716280D02*
X508000Y736600D01*
D15*
X609600Y574040D02*
D03*
Y320040D02*
D03*
X660400Y736600D02*
D03*
Y482600D02*
D03*
X965200Y574040D02*
D03*
Y320040D02*
D03*
X1016000Y736600D02*
D03*
Y482600D02*
D03*
X609600Y787400D02*
D03*
D16*
X584200Y574040D02*
D03*
X558800D02*
D03*
X533400D02*
D03*
X584200Y320040D02*
D03*
X558800D02*
D03*
X533400D02*
D03*
X482600Y736600D02*
D03*
X508000D02*
D03*
X635000D02*
D03*
X609600D02*
D03*
X584200D02*
D03*
X558800D02*
D03*
X533400D02*
D03*
Y609600D02*
D03*
X558800D02*
D03*
X584200D02*
D03*
X609600D02*
D03*
X635000D02*
D03*
X660400D02*
D03*
X508000D02*
D03*
X482600D02*
D03*
Y482600D02*
D03*
X508000D02*
D03*
X635000D02*
D03*
X609600D02*
D03*
X584200D02*
D03*
X558800D02*
D03*
X533400D02*
D03*
Y355600D02*
D03*
X558800D02*
D03*
X584200D02*
D03*
X609600D02*
D03*
X635000D02*
D03*
X660400D02*
D03*
X508000D02*
D03*
X482600D02*
D03*
X939800Y574040D02*
D03*
X914400D02*
D03*
X889000D02*
D03*
X939800Y320040D02*
D03*
X914400D02*
D03*
X889000D02*
D03*
X838200Y736600D02*
D03*
X863600D02*
D03*
X990600D02*
D03*
X965200D02*
D03*
X939800D02*
D03*
X914400D02*
D03*
X889000D02*
D03*
Y609600D02*
D03*
X914400D02*
D03*
X939800D02*
D03*
X965200D02*
D03*
X990600D02*
D03*
X1016000D02*
D03*
X863600D02*
D03*
X838200D02*
D03*
Y482600D02*
D03*
X863600D02*
D03*
X990600D02*
D03*
X965200D02*
D03*
X939800D02*
D03*
X914400D02*
D03*
X889000D02*
D03*
Y355600D02*
D03*
X914400D02*
D03*
X939800D02*
D03*
X965200D02*
D03*
X990600D02*
D03*
X1016000D02*
D03*
X863600D02*
D03*
X838200D02*
D03*
X787400Y787400D02*
D03*
X762000D02*
D03*
X635000D02*
D03*
X660400D02*
D03*
X685800D02*
D03*
X711200D02*
D03*
X736600D02*
D03*
D17*
X355600Y304800D02*
D03*
D18*
Y330200D02*
D03*
Y355600D02*
D03*
Y381000D02*
D03*
Y406400D02*
D03*
Y431800D02*
D03*
Y457200D02*
D03*
Y482600D02*
D03*
Y508000D02*
D03*
Y533400D02*
D03*
Y558800D02*
D03*
Y584200D02*
D03*
Y609600D02*
D03*
Y635000D02*
D03*
Y660400D02*
D03*
Y685800D02*
D03*
Y711200D02*
D03*
Y736600D02*
D03*
X330200Y304800D02*
D03*
Y330200D02*
D03*
Y355600D02*
D03*
Y381000D02*
D03*
Y406400D02*
D03*
Y431800D02*
D03*
Y457200D02*
D03*
Y482600D02*
D03*
Y508000D02*
D03*
Y533400D02*
D03*
Y558800D02*
D03*
Y584200D02*
D03*
Y609600D02*
D03*
Y635000D02*
D03*
Y660400D02*
D03*
Y685800D02*
D03*
Y711200D02*
D03*
Y736600D02*
D03*
M02*
