G04 Layer_Physical_Order=1*
G04 Layer_Color=255*
%FSLAX44Y44*%
%MOMM*%
G71*
G01*
G75*
%ADD10C,0.6350*%
%ADD11C,1.5240*%
%ADD12O,1.5000X2.0000*%
%ADD13R,1.5000X2.0000*%
%ADD14O,2.0000X1.5000*%
%ADD15R,2.0000X1.5000*%
G36*
X988203Y473222D02*
X987795Y472019D01*
X987316Y471956D01*
X984256Y470689D01*
X981628Y468672D01*
X979611Y466044D01*
X978587Y463572D01*
X977213D01*
X976189Y466044D01*
X974172Y468672D01*
X971544Y470689D01*
X968484Y471956D01*
X965200Y472389D01*
X961916Y471956D01*
X958856Y470689D01*
X956228Y468672D01*
X954211Y466044D01*
X953187Y463572D01*
X951813D01*
X950789Y466044D01*
X948772Y468672D01*
X946144Y470689D01*
X943084Y471956D01*
X939800Y472389D01*
X936784Y471991D01*
X885670Y523106D01*
X886156Y524279D01*
X937146D01*
X988203Y473222D01*
D02*
G37*
G36*
X912003D02*
X911595Y472019D01*
X911116Y471956D01*
X908056Y470689D01*
X905428Y468672D01*
X903411Y466044D01*
X902387Y463572D01*
X901013D01*
X899989Y466044D01*
X897972Y468672D01*
X895344Y470689D01*
X892284Y471956D01*
X889000Y472389D01*
X885716Y471956D01*
X882656Y470689D01*
X880028Y468672D01*
X878011Y466044D01*
X876987Y463572D01*
X875613D01*
X874589Y466044D01*
X872572Y468672D01*
X869944Y470689D01*
X866884Y471956D01*
X863600Y472389D01*
X860584Y471991D01*
X820900Y511675D01*
X821386Y512849D01*
X872376D01*
X912003Y473222D01*
D02*
G37*
G36*
X397825Y473101D02*
X390251Y465526D01*
X367568D01*
X367072Y466172D01*
X364444Y468189D01*
X361972Y469213D01*
Y470587D01*
X364444Y471611D01*
X367072Y473628D01*
X367568Y474274D01*
X397339D01*
X397825Y473101D01*
D02*
G37*
G36*
X405445Y498501D02*
X397871Y490926D01*
X367568D01*
X367072Y491572D01*
X364444Y493589D01*
X361972Y494613D01*
Y495987D01*
X364444Y497011D01*
X367072Y499028D01*
X367568Y499674D01*
X404959D01*
X405445Y498501D01*
D02*
G37*
G36*
X629440Y488815D02*
X612616Y471991D01*
X609600Y472389D01*
X606316Y471956D01*
X603256Y470689D01*
X600628Y468672D01*
X598611Y466044D01*
X597587Y463572D01*
X596213D01*
X595189Y466044D01*
X593172Y468672D01*
X590544Y470689D01*
X587484Y471956D01*
X584200Y472389D01*
X580916Y471956D01*
X577856Y470689D01*
X575228Y468672D01*
X573211Y466044D01*
X572187Y463572D01*
X570813D01*
X569789Y466044D01*
X567772Y468672D01*
X565144Y470689D01*
X562084Y471956D01*
X558800Y472389D01*
X555516Y471956D01*
X552456Y470689D01*
X549828Y468672D01*
X547811Y466044D01*
X546787Y463572D01*
X545413D01*
X544389Y466044D01*
X542372Y468672D01*
X539744Y470689D01*
X536684Y471956D01*
X533400Y472389D01*
X530116Y471956D01*
X527056Y470689D01*
X524428Y468672D01*
X522411Y466044D01*
X521387Y463572D01*
X520013D01*
X518989Y466044D01*
X516972Y468672D01*
X514344Y470689D01*
X511284Y471956D01*
X508000Y472389D01*
X504716Y471956D01*
X501656Y470689D01*
X499028Y468672D01*
X497011Y466044D01*
X495987Y463572D01*
X494613D01*
X493589Y466044D01*
X491572Y468672D01*
X488944Y470689D01*
X485884Y471956D01*
X482600Y472389D01*
X479316Y471956D01*
X476256Y470689D01*
X473628Y468672D01*
X471611Y466044D01*
X470344Y462984D01*
X469911Y459700D01*
Y456287D01*
X428351Y414726D01*
X367568D01*
X367072Y415372D01*
X364444Y417389D01*
X361972Y418413D01*
Y419787D01*
X364444Y420811D01*
X367072Y422828D01*
X367568Y423474D01*
X386080D01*
X387158Y423616D01*
X388235Y423758D01*
X390243Y424589D01*
X391968Y425913D01*
X456044Y489989D01*
X628954D01*
X629440Y488815D01*
D02*
G37*
G36*
X1066690Y343010D02*
X1023229D01*
X1022344Y343689D01*
X1019284Y344956D01*
X1016000Y345389D01*
X1012716Y344956D01*
X1009656Y343689D01*
X1007028Y341672D01*
X1005011Y339044D01*
X1003744Y335984D01*
X1003311Y332700D01*
Y331119D01*
X1003190Y330200D01*
Y310106D01*
X979053Y285968D01*
X977879Y286454D01*
Y293652D01*
X978010Y294640D01*
Y330200D01*
X977888Y331119D01*
Y332700D01*
X977456Y335984D01*
X976189Y339044D01*
X974172Y341672D01*
X971544Y343689D01*
X968484Y344956D01*
X965200Y345389D01*
X961916Y344956D01*
X958856Y343689D01*
X956228Y341672D01*
X954211Y339044D01*
X953187Y336572D01*
X951813D01*
X950789Y339044D01*
X948772Y341672D01*
X946144Y343689D01*
X943084Y344956D01*
X939800Y345389D01*
X936516Y344956D01*
X933456Y343689D01*
X930828Y341672D01*
X928811Y339044D01*
X927787Y336572D01*
X926413D01*
X925389Y339044D01*
X923372Y341672D01*
X920744Y343689D01*
X917684Y344956D01*
X914400Y345389D01*
X911116Y344956D01*
X908056Y343689D01*
X905428Y341672D01*
X903411Y339044D01*
X902387Y336572D01*
X901013D01*
X899989Y339044D01*
X897972Y341672D01*
X895344Y343689D01*
X892284Y344956D01*
X889000Y345389D01*
X885716Y344956D01*
X882656Y343689D01*
X880028Y341672D01*
X878011Y339044D01*
X877680Y338243D01*
X876410Y338496D01*
Y345440D01*
X875973Y348755D01*
X874693Y351845D01*
X872658Y354498D01*
X844718Y382438D01*
X842065Y384473D01*
X838975Y385753D01*
X835660Y386190D01*
X535940D01*
X532625Y385753D01*
X529535Y384473D01*
X526882Y382438D01*
X498942Y354498D01*
X496907Y351845D01*
X495627Y348755D01*
X495190Y345440D01*
Y330200D01*
Y317726D01*
X495074Y317610D01*
X363896D01*
X363643Y318880D01*
X364444Y319211D01*
X367072Y321228D01*
X369089Y323856D01*
X370356Y326916D01*
X370789Y330200D01*
X370391Y333216D01*
X400959Y363784D01*
X468630D01*
X469707Y363926D01*
X470785Y364067D01*
X472793Y364899D01*
X474518Y366222D01*
X516529Y408234D01*
X619760D01*
X620838Y408376D01*
X621915Y408517D01*
X623923Y409349D01*
X625648Y410672D01*
X656995Y442020D01*
X667900D01*
X669882Y442415D01*
X671562Y443537D01*
X672685Y445218D01*
X673080Y447200D01*
Y467129D01*
X772392D01*
X819958Y419562D01*
X821682Y418239D01*
X823691Y417407D01*
X825845Y417124D01*
X961390D01*
X962467Y417266D01*
X963545Y417407D01*
X965553Y418239D01*
X967278Y419562D01*
X989828Y442113D01*
X990600Y442011D01*
X993884Y442444D01*
X996944Y443711D01*
X999572Y445728D01*
X1001589Y448356D01*
X1002050Y449471D01*
X1003320Y449218D01*
Y447200D01*
X1003715Y445218D01*
X1004837Y443537D01*
X1006518Y442415D01*
X1008500Y442020D01*
X1023500D01*
X1025482Y442415D01*
X1027162Y443537D01*
X1028285Y445218D01*
X1028680Y447200D01*
Y467200D01*
X1028285Y469182D01*
X1027162Y470863D01*
X1025482Y471985D01*
X1023500Y472379D01*
X1012596D01*
X947778Y537197D01*
X948264Y538370D01*
X1066690D01*
Y343010D01*
D02*
G37*
G36*
X1130300Y322580D02*
X1071880D01*
Y558800D01*
X1130300D01*
Y322580D01*
D02*
G37*
G36*
X1244600Y254000D02*
X269240D01*
Y652447D01*
X270510Y653043D01*
X272165Y652357D01*
X274320Y652074D01*
X318232D01*
X318728Y651428D01*
X321356Y649411D01*
X323828Y648387D01*
Y647013D01*
X321356Y645989D01*
X318728Y643972D01*
X316711Y641344D01*
X315444Y638284D01*
X315011Y635000D01*
X315444Y631716D01*
X316711Y628656D01*
X318728Y626028D01*
X321356Y624011D01*
X323828Y622987D01*
Y621613D01*
X321356Y620589D01*
X318728Y618572D01*
X316711Y615944D01*
X315444Y612884D01*
X315011Y609600D01*
X315444Y606316D01*
X316711Y603256D01*
X318728Y600628D01*
X321356Y598611D01*
X323828Y597587D01*
Y596213D01*
X321356Y595189D01*
X318728Y593172D01*
X316711Y590544D01*
X315444Y587484D01*
X315011Y584200D01*
X315444Y580916D01*
X316711Y577856D01*
X318728Y575228D01*
X321356Y573211D01*
X323828Y572187D01*
Y570813D01*
X321356Y569789D01*
X318728Y567772D01*
X316711Y565144D01*
X315444Y562084D01*
X315011Y558800D01*
X315444Y555516D01*
X316711Y552456D01*
X318728Y549828D01*
X321356Y547811D01*
X323828Y546787D01*
Y545413D01*
X321356Y544389D01*
X318728Y542372D01*
X316711Y539744D01*
X315444Y536684D01*
X315011Y533400D01*
X315444Y530116D01*
X316711Y527056D01*
X318728Y524428D01*
X321356Y522411D01*
X323828Y521387D01*
Y520013D01*
X321356Y518989D01*
X318728Y516972D01*
X316711Y514344D01*
X315444Y511284D01*
X315011Y508000D01*
X315444Y504716D01*
X316711Y501656D01*
X318728Y499028D01*
X321356Y497011D01*
X323828Y495987D01*
Y494613D01*
X321356Y493589D01*
X318728Y491572D01*
X316711Y488944D01*
X315444Y485884D01*
X315011Y482600D01*
X315444Y479316D01*
X316711Y476256D01*
X318728Y473628D01*
X321356Y471611D01*
X323828Y470587D01*
Y469213D01*
X321356Y468189D01*
X318728Y466172D01*
X316711Y463544D01*
X315444Y460484D01*
X315011Y457200D01*
X315444Y453916D01*
X316711Y450856D01*
X318728Y448228D01*
X321356Y446211D01*
X323828Y445187D01*
Y443813D01*
X321356Y442789D01*
X318728Y440772D01*
X316711Y438144D01*
X315444Y435084D01*
X315011Y431800D01*
X315444Y428516D01*
X316711Y425456D01*
X318728Y422828D01*
X321356Y420811D01*
X323828Y419787D01*
Y418413D01*
X321356Y417389D01*
X318728Y415372D01*
X316711Y412744D01*
X315444Y409684D01*
X315011Y406400D01*
X315444Y403116D01*
X316711Y400056D01*
X318728Y397428D01*
X321356Y395411D01*
X323828Y394387D01*
Y393013D01*
X321356Y391989D01*
X318728Y389972D01*
X316711Y387344D01*
X315444Y384284D01*
X315011Y381000D01*
X315444Y377716D01*
X316711Y374656D01*
X318728Y372028D01*
X321356Y370011D01*
X323828Y368987D01*
Y367613D01*
X321356Y366589D01*
X318728Y364572D01*
X316711Y361944D01*
X315444Y358884D01*
X315011Y355600D01*
X315444Y352316D01*
X316711Y349256D01*
X318728Y346628D01*
X321356Y344611D01*
X323828Y343587D01*
Y342213D01*
X321356Y341189D01*
X318728Y339172D01*
X316711Y336544D01*
X315444Y333484D01*
X315011Y330200D01*
X315444Y326916D01*
X316711Y323856D01*
X318728Y321228D01*
X321356Y319211D01*
X323828Y318187D01*
Y316813D01*
X321356Y315789D01*
X318728Y313772D01*
X316711Y311144D01*
X315444Y308084D01*
X315011Y304800D01*
X315444Y301516D01*
X316711Y298456D01*
X318728Y295828D01*
X321356Y293811D01*
X324416Y292544D01*
X327700Y292111D01*
X329281D01*
X330200Y291990D01*
X500380D01*
X503695Y292427D01*
X506785Y293707D01*
X509438Y295742D01*
X517058Y303362D01*
X519093Y306015D01*
X519320Y306563D01*
X520590Y306311D01*
Y294640D01*
X520712Y293721D01*
Y292140D01*
X521144Y288856D01*
X522411Y285796D01*
X524428Y283168D01*
X527056Y281151D01*
X530116Y279884D01*
X533400Y279451D01*
X536684Y279884D01*
X539744Y281151D01*
X542372Y283168D01*
X544389Y285796D01*
X545413Y288268D01*
X546787D01*
X547811Y285796D01*
X549828Y283168D01*
X552456Y281151D01*
X555516Y279884D01*
X558800Y279451D01*
X562084Y279884D01*
X565144Y281151D01*
X567772Y283168D01*
X569789Y285796D01*
X570813Y288268D01*
X572187D01*
X573211Y285796D01*
X575228Y283168D01*
X577856Y281151D01*
X580916Y279884D01*
X584200Y279451D01*
X587484Y279884D01*
X590544Y281151D01*
X593172Y283168D01*
X595189Y285796D01*
X595650Y286911D01*
X596921Y286658D01*
Y284640D01*
X597315Y282658D01*
X598438Y280977D01*
X600118Y279855D01*
X602100Y279461D01*
X617100D01*
X619082Y279855D01*
X620762Y280977D01*
X621885Y282658D01*
X622280Y284640D01*
Y293652D01*
X622410Y294640D01*
Y330200D01*
X622289Y331119D01*
Y332700D01*
X621856Y335984D01*
X620589Y339044D01*
X618572Y341672D01*
X615944Y343689D01*
X612884Y344956D01*
X609600Y345389D01*
X606316Y344956D01*
X603256Y343689D01*
X600628Y341672D01*
X598611Y339044D01*
X597587Y336572D01*
X596213D01*
X595189Y339044D01*
X593172Y341672D01*
X590544Y343689D01*
X587484Y344956D01*
X584200Y345389D01*
X580916Y344956D01*
X577856Y343689D01*
X575228Y341672D01*
X573211Y339044D01*
X572187Y336572D01*
X570813D01*
X569789Y339044D01*
X567772Y341672D01*
X565144Y343689D01*
X562084Y344956D01*
X558800Y345389D01*
X555516Y344956D01*
X552456Y343689D01*
X549828Y341672D01*
X547811Y339044D01*
X546787Y336572D01*
X545413D01*
X544389Y339044D01*
X542372Y341672D01*
X539744Y343689D01*
X536684Y344956D01*
X533400Y345389D01*
X530116Y344956D01*
X527056Y343689D01*
X524428Y341672D01*
X522411Y339044D01*
X522080Y338243D01*
X520810Y338496D01*
Y340134D01*
X541246Y360570D01*
X830354D01*
X850790Y340134D01*
Y330200D01*
X850911Y329281D01*
Y327700D01*
X851344Y324416D01*
X852611Y321356D01*
X854628Y318728D01*
X857256Y316711D01*
X860316Y315444D01*
X863600Y315011D01*
X866884Y315444D01*
X869944Y316711D01*
X872572Y318728D01*
X874589Y321356D01*
X874920Y322157D01*
X876190Y321904D01*
Y294640D01*
X876311Y293721D01*
Y292140D01*
X876744Y288856D01*
X878011Y285796D01*
X878063Y285729D01*
X877501Y284590D01*
X724126D01*
X672603Y336113D01*
X671389Y339044D01*
X669372Y341672D01*
X666744Y343689D01*
X663684Y344956D01*
X660400Y345389D01*
X657116Y344956D01*
X654056Y343689D01*
X651428Y341672D01*
X649411Y339044D01*
X648144Y335984D01*
X647711Y332700D01*
Y331119D01*
X647590Y330200D01*
X647711Y329281D01*
Y327700D01*
X648144Y324416D01*
X649411Y321356D01*
X651428Y318728D01*
X654056Y316711D01*
X656988Y315497D01*
X709762Y262722D01*
X712415Y260687D01*
X715505Y259407D01*
X718820Y258970D01*
X982980D01*
X986295Y259407D01*
X989385Y260687D01*
X992038Y262722D01*
X1025058Y295742D01*
X1027093Y298395D01*
X1028373Y301485D01*
X1028810Y304800D01*
Y317390D01*
X1079500D01*
X1079576Y317400D01*
X1130300D01*
X1132282Y317795D01*
X1133962Y318918D01*
X1135085Y320598D01*
X1135480Y322580D01*
Y558800D01*
X1135085Y560782D01*
X1133962Y562463D01*
X1132282Y563585D01*
X1130300Y563979D01*
X1079576D01*
X1079500Y563990D01*
X1028810D01*
Y609600D01*
X1028689Y610519D01*
Y612100D01*
X1028256Y615384D01*
X1026989Y618444D01*
X1024972Y621072D01*
X1022344Y623089D01*
X1019284Y624356D01*
X1016000Y624789D01*
X1012716Y624356D01*
X1009656Y623089D01*
X1007028Y621072D01*
X1005011Y618444D01*
X1003744Y615384D01*
X1003311Y612100D01*
Y610519D01*
X1003190Y609600D01*
Y563990D01*
X977921D01*
X977879Y564040D01*
Y573052D01*
X978010Y574040D01*
Y609600D01*
X977888Y610519D01*
Y612100D01*
X977456Y615384D01*
X976189Y618444D01*
X974172Y621072D01*
X971544Y623089D01*
X968484Y624356D01*
X965200Y624789D01*
X961916Y624356D01*
X958856Y623089D01*
X956228Y621072D01*
X954211Y618444D01*
X953187Y615972D01*
X951813D01*
X950789Y618444D01*
X948772Y621072D01*
X946144Y623089D01*
X943084Y624356D01*
X939800Y624789D01*
X936516Y624356D01*
X933456Y623089D01*
X930828Y621072D01*
X928811Y618444D01*
X927787Y615972D01*
X926413D01*
X925389Y618444D01*
X923372Y621072D01*
X920744Y623089D01*
X917684Y624356D01*
X914400Y624789D01*
X911116Y624356D01*
X908056Y623089D01*
X905428Y621072D01*
X903411Y618444D01*
X902387Y615972D01*
X901013D01*
X899989Y618444D01*
X897972Y621072D01*
X895344Y623089D01*
X892284Y624356D01*
X889000Y624789D01*
X885716Y624356D01*
X882656Y623089D01*
X880028Y621072D01*
X878011Y618444D01*
X877680Y617643D01*
X876410Y617896D01*
Y622300D01*
X875973Y625615D01*
X874693Y628705D01*
X872658Y631358D01*
X862498Y641518D01*
X859845Y643553D01*
X856755Y644833D01*
X853440Y645270D01*
X518160D01*
X514845Y644833D01*
X511755Y643553D01*
X509102Y641518D01*
X498942Y631358D01*
X496907Y628705D01*
X495627Y625615D01*
X495190Y622300D01*
Y609600D01*
X495312Y608681D01*
Y607100D01*
X495744Y603816D01*
X497011Y600756D01*
X499028Y598128D01*
X501656Y596111D01*
X504716Y594844D01*
X508000Y594411D01*
X511284Y594844D01*
X514344Y596111D01*
X516972Y598128D01*
X518989Y600756D01*
X519320Y601557D01*
X520590Y601304D01*
Y574040D01*
X520712Y573121D01*
Y571540D01*
X521144Y568256D01*
X522411Y565196D01*
X524428Y562568D01*
X527056Y560551D01*
X530116Y559284D01*
X533400Y558851D01*
X536684Y559284D01*
X539744Y560551D01*
X542372Y562568D01*
X544389Y565196D01*
X545413Y567668D01*
X546787D01*
X547811Y565196D01*
X549828Y562568D01*
X552456Y560551D01*
X555516Y559284D01*
X558800Y558851D01*
X562084Y559284D01*
X565144Y560551D01*
X567772Y562568D01*
X569789Y565196D01*
X570813Y567668D01*
X572187D01*
X573211Y565196D01*
X575228Y562568D01*
X577856Y560551D01*
X580916Y559284D01*
X584200Y558851D01*
X587484Y559284D01*
X590544Y560551D01*
X593172Y562568D01*
X595189Y565196D01*
X595650Y566311D01*
X596921Y566058D01*
Y564040D01*
X597315Y562058D01*
X598438Y560378D01*
X600118Y559255D01*
X602100Y558861D01*
X617100D01*
X619082Y559255D01*
X620762Y560378D01*
X621885Y562058D01*
X622280Y564040D01*
Y573052D01*
X622410Y574040D01*
Y609600D01*
X622289Y610519D01*
Y612100D01*
X621856Y615384D01*
X620589Y618444D01*
X620537Y618511D01*
X621099Y619650D01*
X648901D01*
X649463Y618511D01*
X649411Y618444D01*
X648144Y615384D01*
X647711Y612100D01*
Y610519D01*
X647590Y609600D01*
X647711Y608681D01*
Y607100D01*
X648144Y603816D01*
X649411Y600756D01*
X651428Y598128D01*
X654056Y596111D01*
X656988Y594897D01*
X709683Y542201D01*
X709646Y541781D01*
X709358Y540931D01*
X433545D01*
X432467Y540789D01*
X431390Y540648D01*
X429382Y539816D01*
X427658Y538493D01*
X405491Y516326D01*
X367568D01*
X367072Y516972D01*
X364444Y518989D01*
X361972Y520013D01*
Y521387D01*
X364444Y522411D01*
X367072Y524428D01*
X369089Y527056D01*
X370356Y530116D01*
X370789Y533400D01*
X370391Y536416D01*
X484779Y650804D01*
X938530D01*
X939607Y650946D01*
X940685Y651087D01*
X942693Y651919D01*
X944417Y653242D01*
X1012596Y721421D01*
X1023500D01*
X1025482Y721815D01*
X1027162Y722937D01*
X1028285Y724618D01*
X1028680Y726600D01*
Y746600D01*
X1028285Y748582D01*
X1027162Y750263D01*
X1025482Y751385D01*
X1023500Y751779D01*
X1008500D01*
X1006518Y751385D01*
X1004837Y750263D01*
X1003715Y748582D01*
X1003320Y746600D01*
Y744582D01*
X1002050Y744329D01*
X1001589Y745444D01*
X999572Y748072D01*
X996944Y750089D01*
X993884Y751356D01*
X990600Y751789D01*
X987584Y751391D01*
X960928Y778047D01*
X959203Y779371D01*
X957195Y780202D01*
X956117Y780344D01*
X955040Y780486D01*
X820420D01*
X818265Y780202D01*
X816257Y779371D01*
X814532Y778047D01*
X761091Y724606D01*
X673978D01*
X672935Y725876D01*
X673080Y726600D01*
Y746600D01*
X672685Y748582D01*
X671562Y750263D01*
X669882Y751385D01*
X667900Y751779D01*
X656995D01*
X640888Y767887D01*
X639163Y769211D01*
X637155Y770042D01*
X636077Y770184D01*
X635000Y770326D01*
X578413D01*
X537113Y811627D01*
X537599Y812800D01*
X1244600D01*
Y254000D01*
D02*
G37*
G36*
X390205Y447701D02*
X382631Y440126D01*
X367568D01*
X367072Y440772D01*
X364444Y442789D01*
X361972Y443813D01*
Y445187D01*
X364444Y446211D01*
X367072Y448228D01*
X367568Y448874D01*
X389719D01*
X390205Y447701D01*
D02*
G37*
G36*
X624011Y448356D02*
X626028Y445728D01*
X628656Y443711D01*
X631716Y442444D01*
X632195Y442381D01*
X632603Y441178D01*
X616311Y424886D01*
X567816D01*
X567471Y426156D01*
X583428Y442113D01*
X584200Y442011D01*
X587484Y442444D01*
X590544Y443711D01*
X593172Y445728D01*
X595189Y448356D01*
X596213Y450828D01*
X597587D01*
X598611Y448356D01*
X600628Y445728D01*
X603256Y443711D01*
X606316Y442444D01*
X609600Y442011D01*
X612884Y442444D01*
X615944Y443711D01*
X618572Y445728D01*
X620589Y448356D01*
X621613Y450828D01*
X622987D01*
X624011Y448356D01*
D02*
G37*
G36*
X522411D02*
X524428Y445728D01*
X527056Y443711D01*
X530116Y442444D01*
X533400Y442011D01*
X536684Y442444D01*
X539744Y443711D01*
X542372Y445728D01*
X544389Y448356D01*
X545413Y450828D01*
X546787D01*
X547811Y448356D01*
X549828Y445728D01*
X552456Y443711D01*
X555516Y442444D01*
X557705Y442156D01*
X558166Y440916D01*
X557531Y440126D01*
X505460D01*
X504351Y439980D01*
X503758Y441183D01*
X504984Y442409D01*
X508000Y442011D01*
X511284Y442444D01*
X514344Y443711D01*
X516972Y445728D01*
X518989Y448356D01*
X520013Y450828D01*
X521387D01*
X522411Y448356D01*
D02*
G37*
G36*
X878011Y727756D02*
X880028Y725128D01*
X882656Y723111D01*
X885716Y721844D01*
X889000Y721411D01*
X892284Y721844D01*
X895344Y723111D01*
X897972Y725128D01*
X899989Y727756D01*
X901013Y730228D01*
X902387D01*
X903411Y727756D01*
X905428Y725128D01*
X908056Y723111D01*
X911116Y721844D01*
X911595Y721781D01*
X912003Y720578D01*
X870311Y678886D01*
X819321D01*
X818835Y680060D01*
X860584Y721809D01*
X863600Y721411D01*
X866884Y721844D01*
X869944Y723111D01*
X872572Y725128D01*
X874589Y727756D01*
X875613Y730228D01*
X876987D01*
X878011Y727756D01*
D02*
G37*
G36*
X573211D02*
X575228Y725128D01*
X577856Y723111D01*
X580916Y721844D01*
X584200Y721411D01*
X587484Y721844D01*
X590544Y723111D01*
X593172Y725128D01*
X595189Y727756D01*
X596213Y730228D01*
X597587D01*
X598611Y727756D01*
X600628Y725128D01*
X603256Y723111D01*
X606316Y721844D01*
X609600Y721411D01*
X612616Y721809D01*
X631505Y702919D01*
X631019Y701746D01*
X486581D01*
X486095Y702919D01*
X504984Y721809D01*
X508000Y721411D01*
X511284Y721844D01*
X514344Y723111D01*
X516972Y725128D01*
X518989Y727756D01*
X520013Y730228D01*
X521387D01*
X522411Y727756D01*
X524428Y725128D01*
X527056Y723111D01*
X530116Y721844D01*
X533400Y721411D01*
X536684Y721844D01*
X539744Y723111D01*
X542372Y725128D01*
X544389Y727756D01*
X545413Y730228D01*
X546787D01*
X547811Y727756D01*
X549828Y725128D01*
X552456Y723111D01*
X555516Y721844D01*
X558800Y721411D01*
X562084Y721844D01*
X565144Y723111D01*
X567772Y725128D01*
X569789Y727756D01*
X570813Y730228D01*
X572187D01*
X573211Y727756D01*
D02*
G37*
G36*
X954211D02*
X956228Y725128D01*
X958856Y723111D01*
X961916Y721844D01*
X965200Y721411D01*
X968484Y721844D01*
X971544Y723111D01*
X974172Y725128D01*
X976189Y727756D01*
X977213Y730228D01*
X978587D01*
X979611Y727756D01*
X981628Y725128D01*
X984256Y723111D01*
X987316Y721844D01*
X987795Y721781D01*
X988203Y720578D01*
X935081Y667456D01*
X884091D01*
X883605Y668630D01*
X936784Y721809D01*
X939800Y721411D01*
X943084Y721844D01*
X946144Y723111D01*
X948772Y725128D01*
X950789Y727756D01*
X951813Y730228D01*
X953187D01*
X954211Y727756D01*
D02*
G37*
G36*
X542722Y766303D02*
X542129Y765100D01*
X541020Y765246D01*
X449580D01*
X448503Y765104D01*
X447425Y764962D01*
X445417Y764131D01*
X443693Y762807D01*
X438744Y757859D01*
X437403Y758314D01*
X437303Y759075D01*
X436471Y761083D01*
X435148Y762807D01*
X433423Y764131D01*
X431415Y764962D01*
X429260Y765246D01*
X427105Y764962D01*
X425097Y764131D01*
X423372Y762807D01*
X380091Y719526D01*
X367568D01*
X367072Y720172D01*
X364444Y722189D01*
X361384Y723456D01*
X358100Y723888D01*
X353100D01*
X349816Y723456D01*
X346756Y722189D01*
X344128Y720172D01*
X343535Y719400D01*
X342265D01*
X341672Y720172D01*
X339044Y722189D01*
X335984Y723456D01*
X332700Y723888D01*
X327700D01*
X324416Y723456D01*
X321356Y722189D01*
X318728Y720172D01*
X318232Y719526D01*
X294076D01*
Y789488D01*
X519537D01*
X542722Y766303D01*
D02*
G37*
G36*
X632603Y752622D02*
X632195Y751419D01*
X631716Y751356D01*
X628656Y750089D01*
X626028Y748072D01*
X624011Y745444D01*
X622987Y742972D01*
X621613D01*
X620589Y745444D01*
X618572Y748072D01*
X615944Y750089D01*
X612884Y751356D01*
X609600Y751789D01*
X606316Y751356D01*
X603256Y750089D01*
X600628Y748072D01*
X598611Y745444D01*
X597587Y742972D01*
X596213D01*
X595189Y745444D01*
X593172Y748072D01*
X590544Y750089D01*
X587484Y751356D01*
X584200Y751789D01*
X581184Y751391D01*
X580075Y752501D01*
X580561Y753674D01*
X631551D01*
X632603Y752622D01*
D02*
G37*
G36*
X284865Y677757D02*
X287020Y677474D01*
X318232D01*
X318728Y676828D01*
X321356Y674811D01*
X323828Y673787D01*
Y672413D01*
X321356Y671389D01*
X318728Y669372D01*
X318232Y668726D01*
X282646D01*
Y677302D01*
X283916Y678150D01*
X284865Y677757D01*
D02*
G37*
G36*
X850790Y616994D02*
Y609600D01*
X850911Y608681D01*
Y607100D01*
X851344Y603816D01*
X852611Y600756D01*
X854628Y598128D01*
X857256Y596111D01*
X860316Y594844D01*
X863600Y594411D01*
X866884Y594844D01*
X869944Y596111D01*
X872572Y598128D01*
X874589Y600756D01*
X874920Y601557D01*
X876190Y601304D01*
Y574040D01*
X876311Y573121D01*
Y571540D01*
X876744Y568256D01*
X878011Y565196D01*
X878063Y565129D01*
X877501Y563990D01*
X724126D01*
X672603Y615513D01*
X671389Y618444D01*
X671337Y618511D01*
X671899Y619650D01*
X848134D01*
X850790Y616994D01*
D02*
G37*
G36*
X285750Y702874D02*
X318232D01*
X318728Y702228D01*
X321356Y700211D01*
X323828Y699187D01*
Y697813D01*
X321356Y696789D01*
X318728Y694772D01*
X318232Y694126D01*
X287020D01*
X284865Y693842D01*
X283916Y693449D01*
X282646Y694298D01*
Y702350D01*
X283916Y703115D01*
X285750Y702874D01*
D02*
G37*
G36*
X471611Y727756D02*
X473628Y725128D01*
X476256Y723111D01*
X479316Y721844D01*
X479795Y721781D01*
X480203Y720578D01*
X474071Y714446D01*
X440997D01*
X440471Y715716D01*
X453029Y728274D01*
X471397D01*
X471611Y727756D01*
D02*
G37*
G36*
X826940Y744789D02*
X825944Y742384D01*
X825511Y739100D01*
Y735686D01*
X791571Y701746D01*
X783761D01*
X783275Y702919D01*
X825863Y745508D01*
X826940Y744789D01*
D02*
G37*
%LPC*%
G36*
X787400Y802589D02*
X784116Y802156D01*
X781056Y800889D01*
X778428Y798872D01*
X776411Y796244D01*
X775387Y793772D01*
X774013D01*
X772989Y796244D01*
X770972Y798872D01*
X768344Y800889D01*
X765284Y802156D01*
X762000Y802589D01*
X758716Y802156D01*
X755656Y800889D01*
X753028Y798872D01*
X751011Y796244D01*
X749987Y793772D01*
X748613D01*
X747589Y796244D01*
X745572Y798872D01*
X742944Y800889D01*
X739884Y802156D01*
X736600Y802589D01*
X733316Y802156D01*
X730256Y800889D01*
X727628Y798872D01*
X725611Y796244D01*
X724587Y793772D01*
X723213D01*
X722189Y796244D01*
X720172Y798872D01*
X717544Y800889D01*
X714484Y802156D01*
X711200Y802589D01*
X707916Y802156D01*
X704856Y800889D01*
X702228Y798872D01*
X700211Y796244D01*
X699187Y793772D01*
X697813D01*
X696789Y796244D01*
X694772Y798872D01*
X692144Y800889D01*
X689084Y802156D01*
X685800Y802589D01*
X682516Y802156D01*
X679456Y800889D01*
X676828Y798872D01*
X674811Y796244D01*
X673787Y793772D01*
X672413D01*
X671389Y796244D01*
X669372Y798872D01*
X666744Y800889D01*
X663684Y802156D01*
X660400Y802589D01*
X657116Y802156D01*
X654056Y800889D01*
X651428Y798872D01*
X649411Y796244D01*
X648387Y793772D01*
X647013D01*
X645989Y796244D01*
X643972Y798872D01*
X641344Y800889D01*
X638284Y802156D01*
X635000Y802589D01*
X631716Y802156D01*
X628656Y800889D01*
X626028Y798872D01*
X624011Y796244D01*
X623549Y795129D01*
X622280Y795382D01*
Y797400D01*
X621885Y799382D01*
X620762Y801062D01*
X619082Y802185D01*
X617100Y802579D01*
X602100D01*
X600118Y802185D01*
X598438Y801062D01*
X597315Y799382D01*
X596921Y797400D01*
Y777400D01*
X597315Y775418D01*
X598438Y773737D01*
X600118Y772615D01*
X602100Y772221D01*
X617100D01*
X619082Y772615D01*
X620762Y773737D01*
X621885Y775418D01*
X622280Y777400D01*
Y779418D01*
X623549Y779671D01*
X624011Y778556D01*
X626028Y775928D01*
X628656Y773911D01*
X631716Y772644D01*
X635000Y772211D01*
X638284Y772644D01*
X641344Y773911D01*
X643972Y775928D01*
X645989Y778556D01*
X647013Y781028D01*
X648387D01*
X649411Y778556D01*
X651428Y775928D01*
X654056Y773911D01*
X657116Y772644D01*
X660400Y772211D01*
X663684Y772644D01*
X666744Y773911D01*
X669372Y775928D01*
X671389Y778556D01*
X672413Y781028D01*
X673787D01*
X674811Y778556D01*
X676828Y775928D01*
X679456Y773911D01*
X682516Y772644D01*
X685800Y772211D01*
X689084Y772644D01*
X692144Y773911D01*
X694772Y775928D01*
X696789Y778556D01*
X697813Y781028D01*
X699187D01*
X700211Y778556D01*
X702228Y775928D01*
X704856Y773911D01*
X707916Y772644D01*
X711200Y772211D01*
X714484Y772644D01*
X717544Y773911D01*
X720172Y775928D01*
X722189Y778556D01*
X723213Y781028D01*
X724587D01*
X725611Y778556D01*
X727628Y775928D01*
X730256Y773911D01*
X733316Y772644D01*
X736600Y772211D01*
X739884Y772644D01*
X742944Y773911D01*
X745572Y775928D01*
X747589Y778556D01*
X748613Y781028D01*
X749987D01*
X751011Y778556D01*
X753028Y775928D01*
X755656Y773911D01*
X758716Y772644D01*
X762000Y772211D01*
X765284Y772644D01*
X768344Y773911D01*
X770972Y775928D01*
X772989Y778556D01*
X774013Y781028D01*
X775387D01*
X776411Y778556D01*
X778428Y775928D01*
X781056Y773911D01*
X784116Y772644D01*
X787400Y772211D01*
X790684Y772644D01*
X793744Y773911D01*
X796372Y775928D01*
X798389Y778556D01*
X799656Y781616D01*
X800089Y784900D01*
Y789900D01*
X799656Y793184D01*
X798389Y796244D01*
X796372Y798872D01*
X793744Y800889D01*
X790684Y802156D01*
X787400Y802589D01*
D02*
G37*
%LPD*%
D10*
X355600Y660400D02*
X373380D01*
X355600Y635000D02*
X368300D01*
X355600Y558800D02*
X358140D01*
X355600Y584200D02*
X358140D01*
X431800Y406400D02*
X482600Y457200D01*
X355600Y406400D02*
X431800D01*
X561340Y431800D02*
X586740Y457200D01*
X584200D02*
X586740D01*
X619760Y416560D02*
X660400Y457200D01*
X513080Y416560D02*
X619760D01*
X505460Y431800D02*
X561340D01*
X355600Y508000D02*
X408940D01*
X828040Y759460D02*
X942340D01*
X965200Y736600D01*
X830580Y436880D02*
X944880D01*
X965200Y457200D01*
X285750Y711200D02*
X330200D01*
X285750D02*
Y797814D01*
X522986D01*
X584200Y736600D01*
X635000Y457200D02*
Y462280D01*
X825845Y425450D02*
X961390D01*
X990600Y454660D01*
Y457200D01*
X648175Y475455D02*
X775841D01*
X635000Y462280D02*
X648175Y475455D01*
X775841D02*
X825845Y425450D01*
X780575Y486885D02*
X830580Y436880D01*
X609600Y457200D02*
X639285Y486885D01*
X780575D01*
X811055Y509745D02*
X863600Y457200D01*
X794545Y498315D02*
X835660Y457200D01*
X838200D01*
X875825Y521175D02*
X939800Y457200D01*
X408940Y508000D02*
X433545Y532605D01*
X940595D01*
X1016000Y457200D01*
X355600Y609600D02*
X363220D01*
X609600Y736600D02*
X641350Y704850D01*
X773430D01*
X828040Y759460D01*
X635000Y731520D02*
Y736600D01*
Y731520D02*
X650240Y716280D01*
X764540D01*
X820420Y772160D01*
X955040D01*
X990600Y736600D01*
X363220Y609600D02*
X447040Y693420D01*
X795020D01*
X838200Y736600D01*
X358140Y584200D02*
X455930Y681990D01*
X808990D01*
X863600Y736600D01*
X358140Y558800D02*
X469900Y670560D01*
X873760D01*
X939800Y736600D01*
X355600Y533400D02*
X481330Y659130D01*
X938530D01*
X1016000Y736600D01*
X527720Y809244D02*
X574964Y762000D01*
X635000D01*
X660400Y736600D01*
X355600Y685800D02*
X378460D01*
X449580Y756920D01*
X355600Y711200D02*
X383540D01*
X429260Y756920D01*
X287020Y685800D02*
X330200D01*
X274320Y660400D02*
X330200D01*
X274320D02*
Y809244D01*
X527720D01*
X355600Y482600D02*
X401320D01*
X439895Y521175D01*
X875825D01*
X355600Y457200D02*
X393700D01*
X446245Y509745D01*
X811055D01*
X355600Y431800D02*
X386080D01*
X452595Y498315D01*
X794545D01*
X355600Y381000D02*
X369570Y394970D01*
X445770D01*
X508000Y457200D01*
X355600Y355600D02*
X383540Y383540D01*
X457200D01*
X505460Y431800D01*
X355600Y330200D02*
X397510Y372110D01*
X468630D01*
X513080Y416560D01*
X368300Y635000D02*
X439420Y706120D01*
X477520D01*
X508000Y736600D01*
X373380Y660400D02*
X449580Y736600D01*
X482600D01*
X449580Y756920D02*
X541020D01*
X558800Y739140D01*
Y736600D02*
Y739140D01*
D11*
X533400Y294640D02*
Y330200D01*
X558800Y294640D02*
Y330200D01*
X584200Y294640D02*
Y330200D01*
X609600Y294640D02*
Y330200D01*
X889000Y294640D02*
Y330200D01*
X914400Y294640D02*
Y330200D01*
X939800Y294640D02*
Y330200D01*
X965200Y294640D02*
Y330200D01*
X889000Y574040D02*
Y609600D01*
X914400Y574040D02*
Y609600D01*
X939800Y574040D02*
Y609600D01*
X965200Y574040D02*
Y609600D01*
X533400Y574040D02*
Y609600D01*
X558800Y574040D02*
Y609600D01*
X584200Y574040D02*
Y609600D01*
X609600Y574040D02*
Y609600D01*
X508000Y312420D02*
Y330200D01*
X500380Y304800D02*
X508000Y312420D01*
X330200Y304800D02*
X355600D01*
X500380D01*
X508000Y330200D02*
Y345440D01*
X863600Y330200D02*
Y345440D01*
X660400Y330200D02*
X718820Y271780D01*
X1016000Y330200D02*
X1079500D01*
X1016000Y551180D02*
X1079500D01*
X718820Y271780D02*
X982980D01*
X1016000Y304800D02*
Y330200D01*
X982980Y271780D02*
X1016000Y304800D01*
X660400Y609600D02*
X718820Y551180D01*
X1016000D01*
Y609600D01*
X508000D02*
Y622300D01*
X518160Y632460D01*
X853440D01*
X863600Y622300D01*
Y609600D02*
Y622300D01*
X1079500Y330200D02*
Y551180D01*
X508000Y345440D02*
X535940Y373380D01*
X835660D01*
X863600Y345440D01*
D12*
X736600Y787400D02*
D03*
X711200D02*
D03*
X685800D02*
D03*
X660400D02*
D03*
X635000D02*
D03*
X762000D02*
D03*
X787400D02*
D03*
X838200Y330200D02*
D03*
X863600D02*
D03*
X1016000D02*
D03*
X990600D02*
D03*
X965200D02*
D03*
X939800D02*
D03*
X914400D02*
D03*
X889000D02*
D03*
Y457200D02*
D03*
X914400D02*
D03*
X939800D02*
D03*
X965200D02*
D03*
X990600D02*
D03*
X863600D02*
D03*
X838200D02*
D03*
Y609600D02*
D03*
X863600D02*
D03*
X1016000D02*
D03*
X990600D02*
D03*
X965200D02*
D03*
X939800D02*
D03*
X914400D02*
D03*
X889000D02*
D03*
Y736600D02*
D03*
X914400D02*
D03*
X939800D02*
D03*
X965200D02*
D03*
X990600D02*
D03*
X863600D02*
D03*
X838200D02*
D03*
X889000Y294640D02*
D03*
X914400D02*
D03*
X939800D02*
D03*
X889000Y574040D02*
D03*
X914400D02*
D03*
X939800D02*
D03*
X482600Y330200D02*
D03*
X508000D02*
D03*
X660400D02*
D03*
X635000D02*
D03*
X609600D02*
D03*
X584200D02*
D03*
X558800D02*
D03*
X533400D02*
D03*
Y457200D02*
D03*
X558800D02*
D03*
X584200D02*
D03*
X609600D02*
D03*
X635000D02*
D03*
X508000D02*
D03*
X482600D02*
D03*
Y609600D02*
D03*
X508000D02*
D03*
X660400D02*
D03*
X635000D02*
D03*
X609600D02*
D03*
X584200D02*
D03*
X558800D02*
D03*
X533400D02*
D03*
Y736600D02*
D03*
X558800D02*
D03*
X584200D02*
D03*
X609600D02*
D03*
X635000D02*
D03*
X508000D02*
D03*
X482600D02*
D03*
X533400Y294640D02*
D03*
X558800D02*
D03*
X584200D02*
D03*
X533400Y574040D02*
D03*
X558800D02*
D03*
X584200D02*
D03*
D13*
X609600Y787400D02*
D03*
X1016000Y457200D02*
D03*
Y736600D02*
D03*
X965200Y294640D02*
D03*
Y574040D02*
D03*
X660400Y457200D02*
D03*
Y736600D02*
D03*
X609600Y294640D02*
D03*
Y574040D02*
D03*
D14*
X330200Y736600D02*
D03*
Y711200D02*
D03*
Y685800D02*
D03*
Y660400D02*
D03*
Y635000D02*
D03*
Y609600D02*
D03*
Y584200D02*
D03*
Y558800D02*
D03*
Y533400D02*
D03*
Y508000D02*
D03*
Y482600D02*
D03*
Y457200D02*
D03*
Y431800D02*
D03*
Y406400D02*
D03*
Y381000D02*
D03*
Y355600D02*
D03*
Y330200D02*
D03*
Y304800D02*
D03*
X355600Y736600D02*
D03*
Y711200D02*
D03*
Y685800D02*
D03*
Y660400D02*
D03*
Y635000D02*
D03*
Y609600D02*
D03*
Y584200D02*
D03*
Y558800D02*
D03*
Y533400D02*
D03*
Y508000D02*
D03*
Y482600D02*
D03*
Y457200D02*
D03*
Y431800D02*
D03*
Y406400D02*
D03*
Y381000D02*
D03*
Y355600D02*
D03*
Y330200D02*
D03*
D15*
Y304800D02*
D03*
M02*
