M48
;Layer_Color=9474304
;FILE_FORMAT=4:4
METRIC,LZ
;TYPE=PLATED
T1F00S00C1.0000
%
T01
X003302Y003048
X003556
Y003302
Y003556
Y00381
X003302
Y003556
Y003302
X004826Y003556
X00508
X005334
X005588
X005842
X006096
X00635
X006604
X006096Y0032004
X005842
X005588
X005334
X008382Y003556
X008636
X00889
X009144
X009398
X009652
X009906
X01016
X009652Y0032004
X009398
X009144
X00889
Y004826
X008636
X008382
X009144
X009398
X009652
X009906
X01016
Y006096
X009906
X009652
X009398
X009144
X00889
X008636
X008382
X00889Y0057404
X009144
X009398
X009652
Y007366
X009906
X01016
X009398
X009144
X00889
X008636
X008382
X007874Y007874
X00762
X007366
X007112
X006858
X006604
X00635
X006096
Y007366
X00635
X006604
X005842
X005588
X005334
X00508
X004826
Y006096
X00508
X005334
X005588
X005842
X006096
X00635
X006604
X006096Y0057404
X005842
X005588
X005334
Y004826
X00508
X004826
X005588
X005842
X006096
X00635
X006604
X003556
Y004572
Y004318
Y004064
X003302
Y004318
Y004572
Y004826
Y00508
X003556
Y005334
Y005588
Y005842
Y006096
Y00635
Y006604
Y006858
Y007112
Y007366
X003302
Y007112
Y006858
Y006604
Y00635
Y006096
Y005842
Y005588
Y005334
M30
